<?xml version="1.0" encoding="UTF-8"?>
<svg width="24px" height="24px" viewBox="0 0 24 24" version="1.1" xmlns="http://www.w3.org/2000/svg" xmlns:xlink="http://www.w3.org/1999/xlink">
    <title>切片</title>
    <defs>
        <circle id="path-1" cx="12" cy="12" r="12"></circle>
        <filter x="-75.0%" y="-75.0%" width="250.0%" height="250.0%" filterUnits="objectBoundingBox" id="filter-2">
            <feOffset dx="0" dy="0" in="SourceAlpha" result="shadowOffsetOuter1"></feOffset>
            <feGaussianBlur stdDeviation="6" in="shadowOffsetOuter1" result="shadowBlurOuter1"></feGaussianBlur>
            <feColorMatrix values="0 0 0 0 1   0 0 0 0 0.857055821   0 0 0 0 0.776772104  0 0 0 1 0" type="matrix" in="shadowBlurOuter1"></feColorMatrix>
        </filter>
    </defs>
    <g id="app" stroke="none" stroke-width="1" fill="none" fill-rule="evenodd">
        <g id="条件选基-选择中-状态七" transform="translate(-96.000000, -627.000000)">
            <g id="编组-5" transform="translate(24.000000, 572.000000)">
                <g id="icon/24pt/左滑" transform="translate(72.000000, 55.000000)">
                    <g id="椭圆形备份">
                        <use fill="black" fill-opacity="1" filter="url(#filter-2)" xlink:href="#path-1"></use>
                        <use fill="#FFFFFF" fill-rule="evenodd" xlink:href="#path-1"></use>
                    </g>
                    <path d="M12.8920059,7.08800888 L19.4556203,16.9334305 C19.6087966,17.1631948 19.5467096,17.4736295 19.3169453,17.6268057 C19.1676518,17.7263347 18.9764741,17.738237 18.8159884,17.6579942 L12.711051,14.6055255 C12.5774171,14.5387086 12.4209051,14.5351533 12.284375,14.5958333 L5.25612285,17.719501 C5.00378075,17.831653 4.70829988,17.7180065 4.59614784,17.4656644 C4.52254316,17.3000539 4.54431532,17.1075796 4.65305361,16.9625952 L12.0759808,7.06535897 C12.2416662,6.84444507 12.5550669,6.79967355 12.7759808,6.96535897 C12.8213286,6.99936984 12.8605629,7.04084429 12.8920059,7.08800888 Z" id="三角形" fill="#FF6D1B" transform="translate(12.000000, 12.500000) rotate(-90.000000) translate(-12.000000, -12.500000) "></path>
                </g>
            </g>
        </g>
    </g>
</svg>